<svg xmlns="http://www.w3.org/2000/svg" width="24" height="24" viewBox="0 0 24 24" fill="none" stroke="#FFFFFF" stroke-width="2.25" stroke-linecap="round" stroke-linejoin="round" class="lucide lucide-cake-icon lucide-cake">
  <rect width="24" height="24" fill="#ec4899" stroke="none" rx="4" ry="4"/>
  <path d="M20 20v-8a2 2 0 0 0-2-2H6a2 2 0 0 0-2 2v8"/>
  <path d="M4 15s.5-1 2-1 2.5 2 4 2 2.5-2 4-2 2.5 2 4 2 2-1 2-1"/>
  <path d="M2 20h20"/>
  <path d="M7 7v3"/>
  <path d="M12 7v3"/>
  <path d="M17 7v3"/>
  <path d="M7 3h.01"/>
  <path d="M12 3h.01"/>
  <path d="M17 3h.01"/>
</svg>